<?xml version="1.0" encoding="UTF-8"?>
<svg width="801px" height="1300px" viewBox="0 0 801 1300" version="1.1" xmlns="http://www.w3.org/2000/svg" xmlns:xlink="http://www.w3.org/1999/xlink">
    <!-- Generator: Sketch 53.2 (72643) - https://sketchapp.com -->
    <title>Logo</title>
    <desc>Created with Sketch.</desc>
    <g id="Page-1" stroke="none" stroke-width="1" fill="none" fill-rule="evenodd">
        <g id="Logo" fill="#202020" fill-rule="nonzero">
            <path d="M700.724425,391.919428 C686.444994,400.90353 665.01682,404.484355 640.940089,401.898835 C635.868439,427.609823 613.198629,447 586,447 C555.072054,447 530,421.927946 530,391 C530,377.591126 534.712728,365.282969 542.572189,355.641523 C535.728757,348.361827 530.497702,340.737134 527.189542,333.13261 C510.975577,350.906749 501.087913,374.55164 501.087913,400.505919 C501.087913,455.734394 545.859438,500.505919 601.087913,500.505919 C656.316388,500.505919 701.087913,455.734394 701.087913,400.505919 C701.087913,397.613429 700.965107,394.749623 700.724425,391.919428 Z M800.499996,300.5 C800.577076,413.122901 800.577076,746.289568 800.499996,1300 C358.729439,1300 0.540565,942.144259 0.000611,500.500003 C0,500.352992 6.4e-05,500.205991 0.000191,500.059 C6.4e-05,499.872672 0,499.686345 0,499.500003 C0.262944,366.14312 52.918468,241.1335 144.944083,148.2497 C238.332772,53.99012 365.135999,1.13686838e-13 500.5,1.13686838e-13 C666.461567,1.13686838e-13 800.999996,134.53844 800.999996,300.5 L800.499996,1300 C800.499996,1134.59072 800.615676,167.19978 800.499996,300.5 Z M309.087913,500.505919 C394.692049,500.505919 464.087913,431.110055 464.087913,345.505919 C464.087913,259.901783 394.692049,190.505919 309.087913,190.505919 C223.483777,190.505919 154.087913,259.901783 154.087913,345.505919 C154.087913,431.110055 223.483777,500.505919 309.087913,500.505919 Z M464.5,601 L512,501 L417,501 L464.5,601 Z M350,397 C301.398942,397 262,357.601058 262,309 C262,260.398942 301.398942,221 350,221 C398.601058,221 438,260.398942 438,309 C438,357.601058 398.601058,397 350,397 Z" id="OwlLogo"></path>
        </g>
    </g>
</svg>