<?xml version="1.0" encoding="UTF-8"?>
<svg width="801px" height="1300px" viewBox="0 0 801 1300" version="1.1" xmlns="http://www.w3.org/2000/svg" xmlns:xlink="http://www.w3.org/1999/xlink">
    <!-- Generator: Sketch 53.2 (72643) - https://sketchapp.com -->
    <title>OwlLogo</title>
    <desc>Created with Sketch.</desc>
    <g id="Page-1" stroke="none" stroke-width="1" fill="none" fill-rule="evenodd">
        <g id="Logo" transform="translate(-301.000000, -75.000000)" fill="#FFFFFF" fill-rule="nonzero">
            <path d="M1001.72443,466.919428 C987.444994,475.90353 966.01682,479.484355 941.940089,476.898835 C936.868439,502.609823 914.198629,522 887,522 C856.072054,522 831,496.927946 831,466 C831,452.591126 835.712728,440.282969 843.572189,430.641523 C836.728757,423.361827 831.497702,415.737134 828.189542,408.13261 C811.975577,425.906749 802.087913,449.55164 802.087913,475.505919 C802.087913,530.734394 846.859438,575.505919 902.087913,575.505919 C957.316388,575.505919 1002.08791,530.734394 1002.08791,475.505919 C1002.08791,472.613429 1001.96511,469.749623 1001.72443,466.919428 Z M1101.5,375.5 C1101.57708,488.122901 1101.57708,821.289568 1101.5,1375 C659.729439,1375 301.540565,1017.14426 301.000611,575.500003 C301,575.352992 301.000064,575.205991 301.000191,575.059 C301.000064,574.872672 301,574.686345 301,574.500003 C301.262944,441.14312 353.918468,316.1335 445.944083,223.2497 C539.332772,128.99012 666.135999,75 801.5,75 C967.461567,75 1102,209.53844 1102,375.5 L1101.5,1375 C1101.5,1209.59072 1101.61568,242.19978 1101.5,375.5 Z M610.087913,575.505919 C695.692049,575.505919 765.087913,506.110055 765.087913,420.505919 C765.087913,334.901783 695.692049,265.505919 610.087913,265.505919 C524.483777,265.505919 455.087913,334.901783 455.087913,420.505919 C455.087913,506.110055 524.483777,575.505919 610.087913,575.505919 Z M765.5,676 L813,576 L718,576 L765.5,676 Z M651,472 C602.398942,472 563,432.601058 563,384 C563,335.398942 602.398942,296 651,296 C699.601058,296 739,335.398942 739,384 C739,432.601058 699.601058,472 651,472 Z" id="OwlLogo"></path>
        </g>
    </g>
</svg>